# xmcd CD database file
#
# Track frame offsets:
#	150
#	10693
#	31055
#	46445
#	62935
#	75828
#	91275
#	107051
#	118709
#	133638
#
# Disc length: 2058 seconds
#
# Revision: 0
# Processed by: cddbd v1.5.1PL2 Copyright (c) Steve Scherf et al.
# Submitted via: CDex 1.51
#
DISCID=7308080a
DTITLE=Deacon Jones - Let's Talk About The Blues
DYEAR=1986
DGENRE=Blues
TTITLE0=Honey Bee
TTITLE1=Let's Talk About The Blues
TTITLE2=People Don't Care
TTITLE3=Come A Little Closer
TTITLE4=Thirty Days
TTITLE5=Rockin With The Blues
TTITLE6=Dead End Street
TTITLE7=Drug Alley
TTITLE8=Flat Broke
TTITLE9=My Home Town
EXTD=YEAR: 1986
EXTT0=
EXTT1=
EXTT2=
EXTT3=
EXTT4=
EXTT5=
EXTT6=
EXTT7=
EXTT8=
EXTT9=
PLAYORDER=
